<svg version="1.1" xmlns="http://www.w3.org/2000/svg" width="300.000000pt" height="300.000000pt" viewBox="0 0 300.000000 300.000000" preserveAspectRatio="xMidYMid meet" xmlns:xlink="http://www.w3.org/1999/xlink" transform="matrix(-1,0,0,1,0,0)">

<g transform="translate(0.000000,300.000000) scale(0.100000,-0.100000)" fill="#fff" stroke="none">
<path d="M910 2633 c-14 -3 -68 -15 -120 -28 -57 -14 -176 -31 -300 -42 l-205
-18 170 -6 c164 -6 268 -20 310 -41 41 -21 106 -81 150 -137 136 -177 202
-445 173 -703 -14 -130 -4 -196 48 -305 52 -109 136 -213 302 -373 133 -128
155 -154 186 -219 55 -114 70 -199 63 -355 -3 -72 -9 -144 -13 -161 -14 -59
24 -7 85 119 117 238 170 460 186 788 8 148 1 232 -18 225 -8 -2 -14 -59 -18
-183 -11 -290 -48 -493 -132 -704 l-42 -105 -6 100 c-8 118 -29 206 -72 295
-25 54 -57 91 -188 220 -87 85 -181 186 -209 224 -146 196 -179 371 -99 528
44 86 190 212 328 283 l34 17 -6 -94 c-4 -69 -15 -121 -41 -200 -20 -59 -36
-115 -36 -124 0 -53 91 -143 172 -171 232 -80 619 59 983 354 100 81 293 269
284 276 -9 9 -293 67 -429 88 -115 18 -191 23 -365 23 -243 1 -311 -9 -447
-65 -39 -16 -74 -29 -78 -29 -4 0 -20 37 -35 83 -78 238 -219 387 -406 432
-61 14 -154 18 -209 8z m229 -52 c85 -26 140 -61 200 -126 65 -71 112 -156
150 -270 35 -103 43 -88 -77 -153 -87 -48 -189 -132 -242 -200 l-35 -45 -7 84
c-25 281 -140 514 -320 645 -27 20 -47 38 -45 40 2 2 37 13 78 23 98 26 219
27 298 2z m1226 -427 c146 -17 425 -70 438 -83 9 -9 -130 -144 -239 -233 -176
-143 -405 -271 -579 -324 -76 -23 -109 -27 -215 -28 -118 -1 -128 1 -176 26
-58 31 -114 91 -114 124 0 12 16 70 36 130 28 84 37 132 41 206 l6 96 71 30
c70 30 163 57 221 65 80 11 390 6 510 -9z"></path>
</g>
</svg>