<?xml version="1.0" standalone="no"?>
<!DOCTYPE svg PUBLIC "-//W3C//DTD SVG 20010904//EN"
 "http://www.w3.org/TR/2001/REC-SVG-20010904/DTD/svg10.dtd">
<svg version="1.0" xmlns="http://www.w3.org/2000/svg"
 width="1280.000000pt" height="1280.000000pt" viewBox="0 0 1280.000000 1280.000000"
 preserveAspectRatio="xMidYMid meet">
<metadata>
Created by potrace 1.15, written by Peter Selinger 2001-2017
</metadata>
<g transform="translate(0.000000,1280.000000) scale(0.100000,-0.100000)"
fill="#1f2937" stroke="none">
<path d="M9531 11405 c-21 -19 -49 -58 -61 -87 -30 -70 -65 -213 -81 -328 -11
-87 -16 -101 -60 -166 -137 -205 -251 -321 -429 -439 -172 -114 -287 -179
-555 -314 l-230 -115 -195 -8 c-248 -9 -392 -24 -502 -53 -167 -43 -173 -56
-123 -255 37 -144 125 -412 165 -502 16 -37 52 -75 163 -174 363 -325 613
-513 725 -545 23 -7 42 -14 42 -17 0 -2 -8 -16 -19 -30 -10 -15 -24 -46 -31
-69 -11 -36 -10 -46 6 -80 22 -43 94 -97 157 -115 49 -13 73 -32 93 -71 13
-24 13 -29 -1 -44 -32 -31 3 -96 56 -108 l29 -7 0 -131 c0 -73 5 -151 10 -174
29 -124 -199 -544 -557 -1029 -96 -129 -128 -162 -394 -408 l-290 -269 -172
-37 c-95 -21 -280 -61 -412 -90 -281 -61 -305 -70 -305 -112 0 -37 82 -121
177 -183 34 -22 62 -43 63 -47 0 -4 -34 -29 -76 -55 -41 -27 -121 -77 -178
-113 -56 -36 -178 -112 -269 -170 -92 -57 -169 -111 -172 -119 -8 -21 84 -104
198 -180 l96 -63 -61 -92 c-34 -50 -124 -183 -201 -296 l-140 -204 18 -46
c131 -342 138 -607 23 -930 l-34 -95 -254 -99 c-204 -78 -280 -103 -380 -122
-69 -13 -642 -123 -1275 -243 -632 -121 -1258 -240 -1391 -265 l-241 -46 -339
50 c-186 27 -366 59 -399 70 -124 43 -200 102 -245 192 -40 81 -43 186 -6 263
42 90 224 321 510 645 188 213 227 311 172 425 -48 97 -141 150 -319 181 -132
23 -440 15 -592 -16 -528 -105 -754 -336 -842 -855 -15 -92 -18 -162 -17 -420
0 -185 5 -326 11 -350 l11 -40 1 36 c2 58 13 53 41 -19 62 -159 197 -316 417
-485 157 -120 235 -165 358 -206 214 -70 470 -96 885 -88 249 4 331 10 530 36
323 42 736 104 1405 212 184 30 1599 266 1859 310 l128 22 222 -27 c848 -104
1462 -98 1991 20 227 51 505 159 658 258 l58 37 72 -20 c222 -61 411 -67 529
-17 13 6 21 -2 36 -36 40 -92 146 -162 293 -195 52 -12 125 -17 249 -17 l175
-1 500 138 c275 76 508 140 517 143 48 14 74 124 44 183 -41 79 -212 194 -411
277 l-90 38 -1 165 c0 125 -7 210 -27 347 -32 220 -93 553 -147 806 l-39 187
14 88 c95 591 194 1385 216 1728 l12 180 -42 185 c-23 102 -60 262 -81 355
-120 526 -154 671 -200 875 -28 124 -53 232 -56 241 -3 11 13 28 51 53 70 46
195 164 251 237 99 129 167 280 205 460 19 88 23 135 23 304 1 377 -49 555
-155 555 -26 0 -88 -32 -128 -65 -23 -20 -32 -23 -36 -13 -17 47 -75 249 -75
262 0 9 4 16 9 16 5 0 23 20 39 46 77 116 50 201 -166 519 -420 617 -711 904
-919 905 -47 0 -58 -4 -92 -35z"/>
</g>
</svg>
